<svg width="32" height="34" viewBox="0 0 32 34" fill="none" xmlns="http://www.w3.org/2000/svg">
<path d="M31.0816 0.0333252L28.2533 30.6675L15.9998 33.9668L3.74606 30.6675L0.918411 0.0333252H31.0816ZM25.3825 6.2623H15.9888H6.4286L6.88581 9.96166H15.9888H16.5001L15.9888 10.1745L7.2185 13.8272L7.50936 17.4433L15.9888 17.4707L20.5335 17.4852L20.2426 22.3066L15.9887 23.5043V23.5005L15.9538 23.5102L11.8457 22.4731L11.5964 19.4802H11.5828H7.77227H7.75885L8.25763 25.258L15.9888 27.5443V27.5402L16.0028 27.5443L23.6926 25.2996L24.6901 13.8272H15.9888H15.9674L15.9888 13.8179L25.0088 9.96166L25.3825 6.2623Z" fill="black"/>
</svg>
