<svg width="23" height="33" viewBox="0 0 23 33" fill="none" xmlns="http://www.w3.org/2000/svg">
<path d="M16.7681 12.3489H10.4596V0H16.7681C20.1726 0 22.9419 2.76925 22.9419 6.17375C22.9419 9.57825 20.1726 12.3489 16.7681 12.3489ZM12.4822 10.3263H16.7681C19.0575 10.3263 20.9193 8.46313 20.9193 6.17513C20.9193 3.88713 19.0561 2.024 16.7681 2.024H12.4822V10.3263ZM12.4822 12.3489H6.17512C2.77062 12.3489 0.0013749 9.57963 0.0013749 6.17513C0.0013749 2.77063 2.77062 0 6.17512 0H12.4836V12.3489H12.4822ZM6.17512 2.02262C3.88575 2.02262 2.024 3.88575 2.024 6.17375C2.024 8.46175 3.88575 10.3263 6.17512 10.3263H10.461V2.02262H6.17512ZM12.4822 22.6737H6.17512C2.77062 22.6737 0.0013749 19.9045 0.0013749 16.5C0.0013749 13.0955 2.77062 10.3263 6.17512 10.3263H12.4836V22.6737H12.4822ZM6.17512 12.3489C3.88575 12.3489 2.024 14.212 2.024 16.5C2.024 18.788 3.88712 20.6511 6.17512 20.6511H10.461V12.3489H6.17512ZM6.20812 33C2.78575 33 0 30.2308 0 26.8263C0 23.4218 2.76925 20.6525 6.17375 20.6525H12.4822V26.7589C12.4822 30.2005 9.66762 33 6.20812 33ZM6.17512 22.6737C5.07462 22.6752 4.01962 23.113 3.24144 23.8912C2.46327 24.6694 2.02546 25.7244 2.024 26.8249C2.024 29.1143 3.90088 30.976 6.2095 30.976C8.55387 30.976 10.4624 29.084 10.4624 26.7575V22.6737H6.17512ZM16.7681 22.6737H16.6334C13.2289 22.6737 10.4596 19.9045 10.4596 16.5C10.4596 13.0955 13.2289 10.3263 16.6334 10.3263H16.7681C20.1726 10.3263 22.9419 13.0955 22.9419 16.5C22.9419 19.9045 20.1726 22.6737 16.7681 22.6737ZM16.6348 12.3489C14.3454 12.3489 12.4836 14.212 12.4836 16.5C12.4836 18.788 14.3467 20.6511 16.6348 20.6511H16.7695C19.0589 20.6511 20.9206 18.788 20.9206 16.5C20.9206 14.212 19.0561 12.3489 16.7681 12.3489H16.6348Z" fill="black"/>
</svg>
