<svg width="33" height="33" viewBox="0 0 33 33" fill="none" xmlns="http://www.w3.org/2000/svg">
<path d="M2.09689 8.0712C-0.826361 12.2704 -0.463361 17.7319 1.77101 22.1911C1.82189 22.2997 1.87826 22.4028 1.93326 22.5059C1.96489 22.5774 2.00064 22.6434 2.03914 22.7122C2.05701 22.7493 2.08176 22.7892 2.10376 22.8249C2.13951 22.8964 2.17801 22.9652 2.21514 23.0339L2.43101 23.3997C2.47226 23.4671 2.50939 23.5331 2.55476 23.6004C2.63176 23.7297 2.71976 23.8576 2.79951 23.9868C2.83526 24.0418 2.86826 24.0941 2.90814 24.1477C3.04147 24.3576 3.18368 24.5618 3.33439 24.7596C3.44164 24.9067 3.54889 25.0497 3.66439 25.1927C3.70151 25.2449 3.74414 25.2972 3.78264 25.3508L4.08514 25.7207C4.12364 25.7619 4.16076 25.8128 4.20064 25.8568C4.33539 26.0191 4.47839 26.1772 4.62139 26.3381L4.62826 26.3463C4.80286 26.5666 4.99858 26.7692 5.21264 26.9513C5.32264 27.0654 5.43264 27.1782 5.54951 27.2882L5.68839 27.4216C5.84101 27.5659 5.99501 27.7089 6.15589 27.8464C6.15864 27.8464 6.16001 27.8492 6.16276 27.8506L6.24114 27.9193C6.38139 28.0417 6.52301 28.1641 6.66739 28.2768L6.83926 28.4212C6.95614 28.5147 7.07851 28.6041 7.19676 28.6962L7.38514 28.8406C7.51301 28.9368 7.64914 29.0317 7.77976 29.1252C7.82789 29.1596 7.87601 29.1939 7.92551 29.2256L7.96676 29.2572L8.35176 29.5116L8.51676 29.6216C8.72026 29.7508 8.92101 29.8746 9.12176 29.9956C9.17814 30.0231 9.23726 30.0561 9.29089 30.0891C9.43939 30.1743 9.59339 30.2609 9.74326 30.3407C9.82576 30.3874 9.91101 30.4273 9.99626 30.4699C10.0994 30.5277 10.2066 30.5841 10.318 30.6418C10.3446 30.6499 10.3704 30.6605 10.395 30.6734C10.4404 30.6941 10.483 30.7161 10.527 30.7381C10.692 30.8206 10.8639 30.9003 11.0426 30.9787C11.0756 30.9924 11.1114 31.0062 11.1471 31.0254C11.3451 31.1121 11.5445 31.1946 11.7494 31.2757C11.7961 31.2894 11.8456 31.3128 11.8938 31.3307C12.0794 31.4008 12.2705 31.4723 12.4589 31.5397L12.5276 31.5644C12.7394 31.6359 12.947 31.7047 13.1601 31.7707C13.2096 31.7844 13.2605 31.8023 13.3128 31.8161C13.5328 31.8821 13.7445 31.9604 13.9645 32.0044C28.0899 34.5784 32.1943 23.5111 32.1943 23.5111C28.7458 28.0018 22.627 29.1857 16.83 27.8684C16.6155 27.8189 16.401 27.7502 16.1838 27.6869C15.9221 27.6093 15.6621 27.5258 15.4041 27.4367L15.3189 27.4037C15.1319 27.3404 14.9518 27.2703 14.7689 27.2002C14.7192 27.18 14.6687 27.1617 14.6176 27.1452C14.4141 27.0627 14.2189 26.9788 14.0223 26.8922C13.9796 26.8784 13.9439 26.8592 13.9013 26.8427C13.7347 26.7662 13.5688 26.6883 13.4035 26.6089C13.354 26.5871 13.3054 26.5632 13.2578 26.5374C13.1285 26.4769 12.9993 26.4068 12.8728 26.3408C12.7859 26.2991 12.7002 26.2551 12.6156 26.2088C12.4589 26.1263 12.3035 26.0369 12.1481 25.9517C12.1014 25.9187 12.0478 25.8912 11.9941 25.8609C11.7909 25.7405 11.5897 25.6167 11.3905 25.4897C11.3352 25.4558 11.2811 25.42 11.2283 25.3824C11.0823 25.292 10.9393 25.1971 10.7993 25.0978C10.7511 25.0662 10.7071 25.0318 10.6576 24.9974C10.5206 24.9029 10.3854 24.8057 10.252 24.7059C10.1943 24.6592 10.1324 24.6152 10.0705 24.5684C9.94951 24.4722 9.82714 24.3828 9.70614 24.2824L9.54389 24.1518C9.38772 24.0267 9.23414 23.8983 9.08326 23.7668C9.06768 23.7511 9.05064 23.7368 9.03239 23.7242L8.55526 23.2897L8.41776 23.1604C8.30501 23.0449 8.18951 22.9349 8.07401 22.8222L7.93926 22.6847C7.79402 22.5402 7.65235 22.3921 7.51439 22.2406L7.49376 22.2186C7.34801 22.0591 7.20501 21.8954 7.06339 21.7304C7.02626 21.6892 6.99051 21.6424 6.95339 21.5971L6.64126 21.2162C6.48271 21.0125 6.32687 20.8067 6.17376 20.5988C2.95901 16.2112 1.79576 10.1529 4.36839 5.18507M11.165 4.5347C9.04751 7.57482 9.16576 11.6421 10.8158 14.8582C11.0884 15.3994 11.4 15.92 11.748 16.4161C12.0643 16.8698 12.4135 17.4074 12.8384 17.7746C12.9855 17.9423 13.145 18.1046 13.3114 18.2696L13.4351 18.3933C13.5919 18.5446 13.7541 18.6917 13.9164 18.8402L13.9384 18.8581C14.1238 19.02 14.3137 19.1768 14.5076 19.3283C14.5544 19.3599 14.5943 19.3971 14.6396 19.4287C14.8321 19.5772 15.0274 19.7202 15.2281 19.8632L15.2488 19.8756C15.334 19.9374 15.4248 19.9938 15.521 20.0543C15.5595 20.0791 15.6035 20.1121 15.6448 20.1368C15.7905 20.2303 15.9335 20.3183 16.082 20.4077C16.1054 20.4173 16.126 20.4297 16.148 20.4393C16.2718 20.5149 16.4065 20.5878 16.5358 20.6552C16.5811 20.6827 16.6251 20.7033 16.6733 20.7294C16.764 20.7748 16.8548 20.8229 16.9441 20.8697L16.9881 20.8889C17.1738 20.9811 17.3635 21.0663 17.5491 21.1502C17.5959 21.1694 17.6358 21.1846 17.6756 21.2038C17.8283 21.2698 17.9836 21.3331 18.1376 21.3922C18.2064 21.4156 18.271 21.4431 18.3356 21.4637C18.4759 21.5159 18.6244 21.5641 18.7619 21.6122L18.9544 21.6741C19.1565 21.7359 19.36 21.8171 19.5718 21.8528C30.4755 23.6582 33 15.2597 33 15.2597C30.7271 18.5322 26.3285 20.0901 21.6411 18.8732C21.4337 18.8196 21.2278 18.76 21.0238 18.6944C20.9578 18.6752 20.9 18.6546 20.8368 18.6353C20.6938 18.5858 20.5466 18.5391 20.4078 18.4854L20.2098 18.4112C20.0544 18.3493 19.8976 18.2916 19.7478 18.2256C19.701 18.2049 19.6584 18.1912 19.6226 18.1706C19.4301 18.0839 19.2363 17.9987 19.0479 17.9066L18.7646 17.7594L18.601 17.6769C18.4777 17.6115 18.3562 17.5427 18.2366 17.4707C18.2073 17.4563 18.1789 17.4402 18.1514 17.4226C18.0056 17.3318 17.853 17.2438 17.7141 17.1503C17.6674 17.1242 17.6248 17.0926 17.5808 17.0651L17.2948 16.8781C17.0968 16.7406 16.9029 16.5921 16.7063 16.4477C16.6623 16.4078 16.6196 16.3748 16.577 16.3391C14.5159 14.7193 12.8906 12.5028 12.1193 9.9962C11.308 7.38782 11.4868 4.46457 12.8893 2.08995M18.7908 1.88782C17.5409 3.72207 17.4213 5.99907 18.282 8.02032C19.1964 10.1694 21.065 11.8566 23.243 12.6541C23.3324 12.6884 23.419 12.7173 23.5125 12.7503L23.6335 12.7874C23.76 12.8287 23.8879 12.8741 24.0185 12.9029C30.0424 14.0648 31.6731 9.8092 32.1118 9.18495C30.6776 11.2447 28.2728 11.7383 25.322 11.0206C25.0816 10.9605 24.8447 10.887 24.6125 10.8006C24.3233 10.6991 24.0397 10.5826 23.7628 10.4513C23.2386 10.1978 22.7403 9.89385 22.275 9.54382C19.6323 7.54045 17.9946 3.71932 19.7189 0.606323" fill="black"/>
</svg>
