<svg width="32" height="32" viewBox="0 0 32 32" fill="none" xmlns="http://www.w3.org/2000/svg">
<path fill-rule="evenodd" clip-rule="evenodd" d="M0.0474011 0.03125C0.0117413 0.0364426 0.0143688 0.0794221 0.0169338 0.122464C0.0169338 10.7371 0.0169338 21.3501 0.0169338 31.9645C10.6125 32.0355 21.3383 31.9746 31.9844 31.9949C31.9844 21.3401 31.9844 10.6859 31.9844 0.03125C21.3391 0.03125 10.6927 0.03125 0.0474011 0.03125ZM16.2435 28.2881C15.5039 29.0337 14.3368 29.4728 12.901 29.4728C10.546 29.4728 9.23845 28.3255 8.40382 26.7382C9.20723 26.2252 10.0283 25.7296 10.8652 25.2496C11.2066 26.2044 12.3596 27.2778 13.6606 26.617C14.4854 26.1979 14.3902 24.9272 14.3902 23.5481C14.3902 20.6845 14.3902 17.381 14.3902 14.7976C14.3875 14.7545 14.385 14.7115 14.4203 14.7063C15.403 14.7063 16.3856 14.7063 17.368 14.7063C17.368 17.0078 17.368 19.6113 17.368 22.0591C17.368 24.7241 17.5584 26.9631 16.2435 28.2881ZM29.4316 25.6448C29.2643 28.14 27.2268 29.465 24.4787 29.4728C21.7846 29.4806 20.0603 28.2834 19.0087 26.4344C19.7648 25.9141 20.6214 25.4949 21.4095 25.0067C22.0401 25.9927 23.1323 26.9404 24.7521 26.7992C25.7613 26.7112 26.9327 25.8886 26.2714 24.6419C25.9507 24.0376 25.1756 23.7306 24.4787 23.4267C22.267 22.4617 19.6722 21.5767 19.9204 18.1095C20.0034 16.9512 20.5367 16.1372 21.2272 15.5572C21.9349 14.9629 22.8826 14.5646 24.1444 14.5243C26.4359 14.4509 27.693 15.4702 28.5505 16.8944C27.8208 17.4506 27.0169 17.9334 26.2107 18.4134C25.9461 17.6004 24.6689 16.8082 23.5974 17.2892C23.1101 17.5078 22.6722 18.1501 22.9289 18.9298C23.1579 19.6252 24.0919 20.0058 24.8433 20.3277C27.1175 21.3012 29.659 22.2525 29.4316 25.6448Z" fill="black"/>
</svg>
