<svg width="32" height="32" viewBox="0 0 32 32" fill="none" xmlns="http://www.w3.org/2000/svg">
<path d="M0.571442 0.571411V31.4286H31.4286V0.571411H0.571442ZM15.6079 16.315C14.6455 17.278 13.1329 17.7293 11.4242 17.7293C10.9729 17.7293 10.5602 17.7092 10.2458 17.6508V22.6394H7.84987V9.57913C8.71387 9.42163 9.91216 9.30398 11.5424 9.30398C13.3103 9.30398 14.6063 9.67748 15.451 10.384C16.2366 11.032 16.747 12.0728 16.747 13.3103C16.7464 14.5671 16.3542 15.6078 15.6079 16.315ZM20.2615 22.8355C19.1037 22.8355 18.0629 22.561 17.3552 22.1682L17.8257 20.4196C18.3754 20.7546 19.4168 21.1068 20.2808 21.1068C21.3415 21.1068 21.8121 20.6742 21.8121 20.0468C21.8121 19.3988 21.4199 19.0651 20.2422 18.6524C18.376 18.0038 17.5898 16.9823 17.6097 15.8637C17.6097 14.1749 19.0047 12.8583 21.2232 12.8583C22.2846 12.8583 23.2071 13.1335 23.7567 13.4279L23.2855 15.1366C22.8734 14.9013 22.1072 14.587 21.2631 14.587C20.3984 14.587 19.9279 14.9997 19.9279 15.5892C19.9279 16.198 20.3798 16.4924 21.598 16.9244C23.326 17.5531 24.1309 18.4364 24.1508 19.8513C24.1508 21.5787 22.7957 22.8355 20.2615 22.8355ZM11.6402 11.1503C10.9722 11.1503 10.501 11.2094 10.2458 11.2679V15.7461C10.5402 15.8245 10.933 15.8444 11.4242 15.8444C13.2312 15.8444 14.3305 14.9605 14.3305 13.4086C14.3305 11.9358 13.3097 11.1503 11.6402 11.1503Z" fill="black"/>
</svg>
