<svg width="38" height="20" viewBox="0 0 38 20" fill="none" xmlns="http://www.w3.org/2000/svg">
<path d="M11.0992 7.16106H9.6045L8.78908 11.3537H10.1159C10.9963 11.3537 11.6518 11.1875 12.0824 10.8566C12.5131 10.5241 12.8028 9.97148 12.9532 9.19565C13.0989 8.45148 13.0324 7.92581 12.7569 7.62023C12.4798 7.31465 11.9288 7.16106 11.0992 7.16106ZM19 0.00598145C8.50725 0.00598145 0 4.48048 0 9.99998C0 15.5195 8.50725 19.9956 19 19.9956C29.4928 19.9956 38 15.5195 38 9.99998C38 4.48048 29.4928 0.00598145 19 0.00598145ZM13.8383 11.8034C13.4251 12.1992 12.9279 12.4969 12.3864 12.6758C11.8544 12.8468 11.1752 12.9355 10.3518 12.9355H8.48192L7.96417 15.5971H5.78233L7.72983 5.5809H11.9257C13.1876 5.5809 14.1075 5.91181 14.687 6.57523C15.2665 7.23706 15.4407 8.16173 15.2095 9.34923C15.121 9.81912 14.9579 10.2718 14.7266 10.6903C14.5002 11.0941 14.2041 11.4661 13.8383 11.8034ZM20.2097 12.9355L21.0694 8.50373C21.1692 8.00023 21.1312 7.65506 20.9618 7.47298C20.7923 7.28931 20.4298 7.19748 19.874 7.19748H18.145L17.0303 12.9371H14.8643L16.8118 2.91931H18.9762L18.4585 5.58248H20.387C21.6014 5.58248 22.4374 5.79465 22.8982 6.2174C23.3589 6.64015 23.4967 7.32573 23.3146 8.27415L22.4089 12.9355H20.2097ZM32.2383 9.34923C32.1512 9.81951 31.988 10.2725 31.7553 10.6903C31.5289 11.0941 31.2328 11.4661 30.8671 11.8034C30.4536 12.198 29.9577 12.496 29.4152 12.6758C28.8832 12.8468 28.2039 12.9355 27.379 12.9355H25.5107L24.9929 15.5986H22.8111L24.7586 5.58248H28.9528C30.2148 5.58248 31.1347 5.9134 31.7142 6.57681C32.2937 7.23706 32.4694 8.16173 32.2383 9.34923ZM28.1295 7.16106H26.6364L25.8194 11.3537H27.1463C28.0282 11.3537 28.6837 11.1875 29.1127 10.8566C29.5434 10.5241 29.8332 9.97148 29.9852 9.19565C30.1308 8.45148 30.0627 7.92581 29.7873 7.62023C29.5118 7.31465 28.9576 7.16106 28.1295 7.16106Z" fill="black"/>
</svg>
