<svg width="30" height="34" viewBox="0 0 30 34" fill="none" xmlns="http://www.w3.org/2000/svg">
<path d="M12.6682 29.927C11.4221 30.2508 10.1066 30.1844 8.89941 29.7367C7.69224 29.2891 6.65151 28.4818 5.91778 27.4238C5.46715 26.7933 5.14693 26.0793 4.97592 25.3234C4.8049 24.5676 4.78652 23.7852 4.92186 23.0222C4.968 22.7716 5.03143 22.5245 5.11169 22.2827L5.26044 21.8279L5.66703 22.1255C6.60376 22.8136 7.65108 23.3367 8.76386 23.6724L9.05853 23.7617L9.03019 24.0564C8.99481 24.4738 9.10822 24.8903 9.35036 25.2322C9.57115 25.5511 9.88449 25.7944 10.2481 25.9295C10.6116 26.0645 11.0079 26.0847 11.3833 25.9873C11.5551 25.9416 11.719 25.87 11.8692 25.7748L19.7884 20.7286C19.9818 20.6064 20.1477 20.4454 20.2755 20.2556C20.4033 20.0659 20.4902 19.8516 20.5307 19.6264C20.5715 19.3964 20.5661 19.1606 20.5147 18.9327C20.4634 18.7048 20.3672 18.4894 20.2318 18.299C20.0108 17.9803 19.6975 17.7371 19.334 17.602C18.9704 17.467 18.5743 17.4467 18.1989 17.5439C18.027 17.5896 17.8631 17.6612 17.7129 17.7565L14.6912 19.6831C14.1944 19.9993 13.6521 20.2377 13.0833 20.39C11.8373 20.714 10.5219 20.6478 9.31475 20.2004C8.10759 19.753 7.06678 18.9459 6.33286 17.8882C5.88222 17.2575 5.56211 16.5431 5.39134 15.787C5.22056 15.0309 5.20254 14.2484 5.33836 13.4852C5.47263 12.7374 5.76147 12.0258 6.18641 11.3959C6.61134 10.7661 7.16303 10.2319 7.80619 9.82737L15.7239 4.77978C16.2207 4.46345 16.7629 4.22505 17.3319 4.07287C18.578 3.74909 19.8935 3.81551 21.1006 4.26317C22.3078 4.71082 23.3485 5.51815 24.0823 6.57612C24.5329 7.20656 24.8531 7.92064 25.0241 8.67647C25.1951 9.4323 25.2135 10.2147 25.0782 10.9777C25.0319 11.2282 24.9684 11.4753 24.8884 11.7172L24.7396 12.1719L24.3344 11.8744C23.3975 11.1856 22.3496 10.6619 21.2362 10.326L20.9415 10.2368L20.9699 9.94353C21.0053 9.52564 20.8919 9.10865 20.6497 8.76628C20.4287 8.44769 20.1153 8.20458 19.7517 8.0698C19.3882 7.93502 18.992 7.91506 18.6168 8.01262C18.4449 8.05826 18.281 8.12992 18.1309 8.22512L10.2117 13.2713C10.0182 13.3933 9.85219 13.5544 9.72437 13.7441C9.59656 13.9339 9.5097 14.1482 9.46936 14.3734C9.42841 14.6035 9.43375 14.8393 9.48508 15.0673C9.5364 15.2952 9.63268 15.5106 9.76828 15.7009C9.9892 16.0196 10.3026 16.2628 10.6661 16.3979C11.0296 16.5329 11.4258 16.5532 11.8012 16.4559C11.9736 16.4099 12.1379 16.3378 12.2885 16.242L15.3089 14.3154C15.8056 13.9994 16.3479 13.7615 16.9168 13.6099C18.1628 13.2859 19.4781 13.3521 20.6853 13.7995C21.8925 14.2469 22.9333 15.054 23.6672 16.1117C24.1178 16.7424 24.4379 17.4568 24.6087 18.2129C24.7795 18.969 24.7975 19.7515 24.6617 20.5147C24.5274 21.2627 24.2386 21.9745 23.8137 22.6046C23.3888 23.2347 22.8371 23.7692 22.1939 24.1739L14.2761 29.2201C13.7794 29.5364 13.2371 29.7749 12.6682 29.927ZM27.342 4.49787C24.1857 -0.0213008 17.9495 -1.36005 13.4417 1.51295L5.52252 6.55912C4.45308 7.23218 3.53583 8.12096 2.82939 9.16866C2.12296 10.2164 1.64289 11.3999 1.41986 12.6437C1.042 14.7392 1.37403 16.9009 2.36336 18.7864C1.68525 19.8143 1.2226 20.969 1.00336 22.1807C0.778041 23.4495 0.808339 24.7506 1.09248 26.0075C1.37661 27.2645 1.90887 28.4521 2.65802 29.5006C5.81577 34.0198 12.0505 35.3585 16.5584 32.4869L24.4775 27.4408C25.5471 26.7679 26.4644 25.8791 27.1709 24.8314C27.8773 23.7837 28.3573 22.6 28.5802 21.3562C28.9582 19.2609 28.6266 17.0993 27.6381 15.2135C28.3152 14.1854 28.7769 13.0307 28.9953 11.8192C29.2211 10.5503 29.1913 9.24896 28.9074 7.99172C28.6235 6.73448 28.0913 5.54662 27.342 4.49787Z" fill="black"/>
</svg>
